<mxfile host="app.diagrams.net" modified="2024-04-29T16:44:29.595Z" agent="Mozilla/5.0 (Windows NT 10.0; Win64; x64) AppleWebKit/537.36 (KHTML, like Gecko) Chrome/124.0.0.0 Safari/537.36" etag="yLVqNxsoy-DnLqKDsNb3" version="24.3.1" type="github">
  <diagram name="Seite-1" id="iVmIlQBCY1E0hf-4H-sd">
    <mxGraphModel dx="1430" dy="763" grid="1" gridSize="10" guides="1" tooltips="1" connect="1" arrows="1" fold="1" page="1" pageScale="1" pageWidth="827" pageHeight="1169" math="0" shadow="0">
      <root>
        <mxCell id="0" />
        <mxCell id="1" parent="0" />
        <mxCell id="-3UPCh3XHjgh82qcXA4f-2" value="&lt;font color=&quot;#0000cc&quot; style=&quot;font-size: 24px;&quot;&gt;&lt;b&gt;Dispatching&lt;/b&gt;&lt;/font&gt;" style="text;html=1;align=center;verticalAlign=middle;whiteSpace=wrap;rounded=0;" vertex="1" parent="1">
          <mxGeometry x="40" y="50" width="160" height="50" as="geometry" />
        </mxCell>
        <mxCell id="-3UPCh3XHjgh82qcXA4f-5" style="edgeStyle=orthogonalEdgeStyle;rounded=0;orthogonalLoop=1;jettySize=auto;html=1;entryX=0.5;entryY=0;entryDx=0;entryDy=0;" edge="1" parent="1" source="-3UPCh3XHjgh82qcXA4f-3" target="-3UPCh3XHjgh82qcXA4f-4">
          <mxGeometry relative="1" as="geometry" />
        </mxCell>
        <mxCell id="-3UPCh3XHjgh82qcXA4f-3" value="&lt;font style=&quot;font-size: 14px;&quot;&gt;&lt;b&gt;Dispatching&lt;/b&gt;&lt;/font&gt;" style="shape=process;whiteSpace=wrap;html=1;backgroundOutline=1;fillColor=#dae8fc;strokeColor=#6c8ebf;" vertex="1" parent="1">
          <mxGeometry x="320" y="140" width="120" height="60" as="geometry" />
        </mxCell>
        <mxCell id="-3UPCh3XHjgh82qcXA4f-8" style="edgeStyle=orthogonalEdgeStyle;rounded=0;orthogonalLoop=1;jettySize=auto;html=1;entryX=1;entryY=0.5;entryDx=0;entryDy=0;" edge="1" parent="1" source="-3UPCh3XHjgh82qcXA4f-4" target="-3UPCh3XHjgh82qcXA4f-7">
          <mxGeometry relative="1" as="geometry" />
        </mxCell>
        <mxCell id="-3UPCh3XHjgh82qcXA4f-14" style="edgeStyle=orthogonalEdgeStyle;rounded=0;orthogonalLoop=1;jettySize=auto;html=1;entryX=0;entryY=0.5;entryDx=0;entryDy=0;" edge="1" parent="1" source="-3UPCh3XHjgh82qcXA4f-4" target="-3UPCh3XHjgh82qcXA4f-11">
          <mxGeometry relative="1" as="geometry" />
        </mxCell>
        <mxCell id="-3UPCh3XHjgh82qcXA4f-4" value="&lt;b&gt;Project?&lt;/b&gt;" style="rhombus;whiteSpace=wrap;html=1;" vertex="1" parent="1">
          <mxGeometry x="340" y="247" width="80" height="80" as="geometry" />
        </mxCell>
        <mxCell id="-3UPCh3XHjgh82qcXA4f-31" style="edgeStyle=orthogonalEdgeStyle;rounded=0;orthogonalLoop=1;jettySize=auto;html=1;exitX=0.5;exitY=1;exitDx=0;exitDy=0;" edge="1" parent="1" source="-3UPCh3XHjgh82qcXA4f-7" target="-3UPCh3XHjgh82qcXA4f-28">
          <mxGeometry relative="1" as="geometry">
            <mxPoint x="210" y="390" as="sourcePoint" />
            <Array as="points">
              <mxPoint x="230" y="350" />
              <mxPoint x="380" y="350" />
            </Array>
          </mxGeometry>
        </mxCell>
        <mxCell id="-3UPCh3XHjgh82qcXA4f-7" value="&lt;b&gt;ProjectLists&lt;/b&gt;&lt;br&gt;&lt;b&gt;&lt;font color=&quot;#007fff&quot;&gt;ClickUp&lt;/font&gt;&lt;/b&gt;" style="rounded=0;whiteSpace=wrap;html=1;" vertex="1" parent="1">
          <mxGeometry x="170" y="257" width="120" height="60" as="geometry" />
        </mxCell>
        <mxCell id="-3UPCh3XHjgh82qcXA4f-9" value="&lt;b&gt;OPPORTUNITIES&lt;/b&gt;&lt;br&gt;&lt;font style=&quot;font-size: 9px;&quot;&gt;C:\me\LIFE\03 FILES&lt;/font&gt;&lt;div&gt;&lt;font style=&quot;font-size: 9px;&quot;&gt;Opportunities_bre.ods&lt;/font&gt;&lt;br&gt;&lt;/div&gt;" style="rounded=0;whiteSpace=wrap;html=1;fillColor=#d5e8d4;strokeColor=#82b366;" vertex="1" parent="1">
          <mxGeometry x="630" y="80" width="130" height="60" as="geometry" />
        </mxCell>
        <mxCell id="-3UPCh3XHjgh82qcXA4f-10" value="&lt;b&gt;BUCKET-List&lt;/b&gt;&lt;br&gt;&lt;font style=&quot;font-size: 9px;&quot;&gt;C:\me\LIFE\03 FILES&lt;/font&gt;&lt;div&gt;&lt;font style=&quot;font-size: 9px;&quot;&gt;Opportunities_bre.ods&lt;/font&gt;&lt;br&gt;&lt;/div&gt;" style="rounded=0;whiteSpace=wrap;html=1;fillColor=#d5e8d4;strokeColor=#82b366;" vertex="1" parent="1">
          <mxGeometry x="630" y="150" width="130" height="60" as="geometry" />
        </mxCell>
        <mxCell id="-3UPCh3XHjgh82qcXA4f-12" style="edgeStyle=orthogonalEdgeStyle;rounded=0;orthogonalLoop=1;jettySize=auto;html=1;exitX=0.5;exitY=0;exitDx=0;exitDy=0;" edge="1" parent="1" source="-3UPCh3XHjgh82qcXA4f-11" target="-3UPCh3XHjgh82qcXA4f-13">
          <mxGeometry relative="1" as="geometry" />
        </mxCell>
        <mxCell id="-3UPCh3XHjgh82qcXA4f-15" value="&lt;b&gt;&lt;font color=&quot;#ff0000&quot;&gt;NO&lt;/font&gt;&lt;/b&gt;&lt;div&gt;&lt;b&gt;&lt;font color=&quot;#ff0000&quot;&gt;&lt;br&gt;&lt;/font&gt;&lt;/b&gt;&lt;/div&gt;" style="edgeLabel;html=1;align=center;verticalAlign=middle;resizable=0;points=[];" vertex="1" connectable="0" parent="-3UPCh3XHjgh82qcXA4f-12">
          <mxGeometry x="-0.8943" y="-2" relative="1" as="geometry">
            <mxPoint as="offset" />
          </mxGeometry>
        </mxCell>
        <mxCell id="-3UPCh3XHjgh82qcXA4f-11" value="&lt;b&gt;NOW?&lt;/b&gt;" style="rhombus;whiteSpace=wrap;html=1;" vertex="1" parent="1">
          <mxGeometry x="460" y="247" width="80" height="80" as="geometry" />
        </mxCell>
        <mxCell id="-3UPCh3XHjgh82qcXA4f-17" style="edgeStyle=orthogonalEdgeStyle;rounded=0;orthogonalLoop=1;jettySize=auto;html=1;exitX=0.5;exitY=0;exitDx=0;exitDy=0;" edge="1" parent="1" source="-3UPCh3XHjgh82qcXA4f-13" target="-3UPCh3XHjgh82qcXA4f-9">
          <mxGeometry relative="1" as="geometry" />
        </mxCell>
        <mxCell id="-3UPCh3XHjgh82qcXA4f-18" value="&lt;b&gt;&lt;font color=&quot;#00cc00&quot;&gt;YES&lt;/font&gt;&lt;/b&gt;" style="edgeLabel;html=1;align=center;verticalAlign=middle;resizable=0;points=[];" vertex="1" connectable="0" parent="-3UPCh3XHjgh82qcXA4f-17">
          <mxGeometry x="-0.8542" relative="1" as="geometry">
            <mxPoint as="offset" />
          </mxGeometry>
        </mxCell>
        <mxCell id="-3UPCh3XHjgh82qcXA4f-19" style="edgeStyle=orthogonalEdgeStyle;rounded=0;orthogonalLoop=1;jettySize=auto;html=1;" edge="1" parent="1" source="-3UPCh3XHjgh82qcXA4f-13" target="-3UPCh3XHjgh82qcXA4f-10">
          <mxGeometry relative="1" as="geometry" />
        </mxCell>
        <mxCell id="-3UPCh3XHjgh82qcXA4f-20" value="&lt;b&gt;&lt;font color=&quot;#ff0000&quot;&gt;NO&lt;/font&gt;&lt;/b&gt;" style="edgeLabel;html=1;align=center;verticalAlign=middle;resizable=0;points=[];" vertex="1" connectable="0" parent="-3UPCh3XHjgh82qcXA4f-19">
          <mxGeometry x="-0.7063" relative="1" as="geometry">
            <mxPoint as="offset" />
          </mxGeometry>
        </mxCell>
        <mxCell id="-3UPCh3XHjgh82qcXA4f-13" value="&lt;b&gt;BIZ?&lt;/b&gt;" style="rhombus;whiteSpace=wrap;html=1;" vertex="1" parent="1">
          <mxGeometry x="460" y="140" width="80" height="80" as="geometry" />
        </mxCell>
        <mxCell id="-3UPCh3XHjgh82qcXA4f-16" value="&lt;b&gt;&lt;font color=&quot;#ff0000&quot;&gt;NO&lt;/font&gt;&lt;/b&gt;" style="edgeLabel;html=1;align=center;verticalAlign=middle;resizable=0;points=[];" vertex="1" connectable="0" parent="1">
          <mxGeometry x="433.0037931034484" y="284" as="geometry">
            <mxPoint x="3" y="3" as="offset" />
          </mxGeometry>
        </mxCell>
        <mxCell id="-3UPCh3XHjgh82qcXA4f-24" style="edgeStyle=orthogonalEdgeStyle;rounded=0;orthogonalLoop=1;jettySize=auto;html=1;" edge="1" parent="1" source="-3UPCh3XHjgh82qcXA4f-21" target="-3UPCh3XHjgh82qcXA4f-23">
          <mxGeometry relative="1" as="geometry" />
        </mxCell>
        <mxCell id="-3UPCh3XHjgh82qcXA4f-21" value="&lt;b&gt;Habit?&lt;/b&gt;" style="rhombus;whiteSpace=wrap;html=1;" vertex="1" parent="1">
          <mxGeometry x="460" y="350" width="80" height="80" as="geometry" />
        </mxCell>
        <mxCell id="-3UPCh3XHjgh82qcXA4f-22" style="edgeStyle=orthogonalEdgeStyle;rounded=0;orthogonalLoop=1;jettySize=auto;html=1;entryX=0.5;entryY=0;entryDx=0;entryDy=0;" edge="1" parent="1" source="-3UPCh3XHjgh82qcXA4f-11" target="-3UPCh3XHjgh82qcXA4f-21">
          <mxGeometry relative="1" as="geometry" />
        </mxCell>
        <mxCell id="-3UPCh3XHjgh82qcXA4f-29" style="edgeStyle=orthogonalEdgeStyle;rounded=0;orthogonalLoop=1;jettySize=auto;html=1;entryX=0.5;entryY=0;entryDx=0;entryDy=0;exitX=0.547;exitY=1.015;exitDx=0;exitDy=0;exitPerimeter=0;" edge="1" parent="1" source="-3UPCh3XHjgh82qcXA4f-23" target="-3UPCh3XHjgh82qcXA4f-28">
          <mxGeometry relative="1" as="geometry" />
        </mxCell>
        <mxCell id="-3UPCh3XHjgh82qcXA4f-23" value="&lt;b&gt;List of Habits&lt;/b&gt;&lt;br&gt;&lt;font size=&quot;1&quot;&gt;Gewohnheiten.md&lt;br&gt;Job, Work, Sport, Hobbies, Lesen, Finance&lt;/font&gt;" style="rounded=0;whiteSpace=wrap;html=1;fillColor=#d5e8d4;strokeColor=#82b366;" vertex="1" parent="1">
          <mxGeometry x="640" y="360" width="120" height="60" as="geometry" />
        </mxCell>
        <mxCell id="-3UPCh3XHjgh82qcXA4f-26" style="edgeStyle=orthogonalEdgeStyle;rounded=0;orthogonalLoop=1;jettySize=auto;html=1;entryX=0.5;entryY=0;entryDx=0;entryDy=0;" edge="1" parent="1" source="-3UPCh3XHjgh82qcXA4f-25" target="-3UPCh3XHjgh82qcXA4f-3">
          <mxGeometry relative="1" as="geometry" />
        </mxCell>
        <mxCell id="-3UPCh3XHjgh82qcXA4f-25" value="Inbox&lt;br&gt;&lt;b&gt;&lt;font color=&quot;#007fff&quot;&gt;DayOne&lt;/font&gt;&lt;/b&gt;" style="shape=process;whiteSpace=wrap;html=1;backgroundOutline=1;" vertex="1" parent="1">
          <mxGeometry x="320" y="50" width="120" height="60" as="geometry" />
        </mxCell>
        <mxCell id="-3UPCh3XHjgh82qcXA4f-27" value="&lt;b&gt;DayPlan&lt;/b&gt;&lt;br&gt;&lt;font color=&quot;#007fff&quot; size=&quot;1&quot;&gt;&lt;b&gt;Sunsama&lt;/b&gt;&lt;/font&gt;" style="rounded=0;whiteSpace=wrap;html=1;fillColor=#d5e8d4;strokeColor=#82b366;" vertex="1" parent="1">
          <mxGeometry x="640" y="510" width="120" height="60" as="geometry" />
        </mxCell>
        <mxCell id="-3UPCh3XHjgh82qcXA4f-28" value="&lt;font style=&quot;font-size: 14px;&quot;&gt;&lt;b&gt;DayPlanning&lt;/b&gt;&lt;/font&gt;" style="shape=process;whiteSpace=wrap;html=1;backgroundOutline=1;fillColor=#dae8fc;strokeColor=#6c8ebf;" vertex="1" parent="1">
          <mxGeometry x="440" y="500" width="120" height="60" as="geometry" />
        </mxCell>
      </root>
    </mxGraphModel>
  </diagram>
</mxfile>
